# xmcd
#
# Track frame offsets:
# 150
# 15055
# 28272
# 42692
# 55342
# 68262
# 83095
# 97400
# 111145
# 125715
# 139850
# 151992
# 164285
# 175822
# 186787
# 200947
# 213320
# 227695
# 241632
# 255920
#
# Disc length: 3580 seconds
#
#
# Revision: 0
# Processed by: cddbd v1.5.1PL2 Copyright (c) Steve Scherf et al.
# Submitted via: FreeRIP 2.944 
#
DISCID=0f0dfa14
DTITLE=Bing Crosby - Country Style - 20 Great Tracks
DYEAR=1994
DGENRE=Country
TTITLE0=Country Style
TTITLE1=When The Bloom Is On The Sage
TTITLE2=Home On The Range
TTITLE3=Ridin' Down The Canyon
TTITLE4=Sioux City Sue
TTITLE5=New San Antonio Rose
TTITLE6=The Old Oaken Bucket
TTITLE7=Pistol Packin' Mama
TTITLE8=San Fernando Valley
TTITLE9=Don't Fence Me In
TTITLE10=Dear Hearts and Gentle People
TTITLE11=I'm An Old Cowhand (From The Rio Grande)
TTITLE12=You Are My Sunshine
TTITLE13=El Rancho Grande
TTITLE14=Tumbling Tumbleweeds
TTITLE15=Take Me Back To My Boots and Saddle
TTITLE16=Twilight On The Trail
TTITLE17=Empty Saddles
TTITLE18=Roundup Lullaby
TTITLE19=Along The Navajo Trail
EXTD=
EXTT0=
EXTT1=
EXTT2=
EXTT3=
EXTT4=
EXTT5=
EXTT6=
EXTT7=
EXTT8=
EXTT9=
EXTT10=
EXTT11=
EXTT12=
EXTT13=
EXTT14=
EXTT15=
EXTT16=
EXTT17=
EXTT18=
EXTT19=
PLAYORDER=
